<?xml version="1.0" encoding="UTF-8" standalone="no"?>
<!-- Created with Inkscape (http://www.inkscape.org/) -->

<svg
   xmlns:dc="http://purl.org/dc/elements/1.1/"
   xmlns:cc="http://creativecommons.org/ns#"
   xmlns:rdf="http://www.w3.org/1999/02/22-rdf-syntax-ns#"
   xmlns:svg="http://www.w3.org/2000/svg"
   xmlns="http://www.w3.org/2000/svg"
   xmlns:sodipodi="http://sodipodi.sourceforge.net/DTD/sodipodi-0.dtd"
   xmlns:inkscape="http://www.inkscape.org/namespaces/inkscape"
   width="9.6169996mm"
   height="8.3079996mm"
   viewBox="0 0 9.6169996 8.3079996"
   version="1.1"
   id="svg113"
   inkscape:version="0.92.4 (5da689c313, 2019-01-14)"
   sodipodi:docname="UnicefLogoSolo.svg">
  <defs
     id="defs107" />
  <sodipodi:namedview
     id="base"
     pagecolor="#ffffff"
     bordercolor="#666666"
     borderopacity="1.0"
     inkscape:pageopacity="0.0"
     inkscape:pageshadow="2"
     inkscape:zoom="63.356767"
     inkscape:cx="26.524671"
     inkscape:cy="29.187897"
     inkscape:document-units="mm"
     inkscape:current-layer="layer1"
     showgrid="false"
     inkscape:window-width="1858"
     inkscape:window-height="1057"
     inkscape:window-x="-8"
     inkscape:window-y="-8"
     inkscape:window-maximized="1" />
  <metadata
     id="metadata110">
    <rdf:RDF>
      <cc:Work
         rdf:about="">
        <dc:format>image/svg+xml</dc:format>
        <dc:type
           rdf:resource="http://purl.org/dc/dcmitype/StillImage" />
        <dc:title></dc:title>
      </cc:Work>
    </rdf:RDF>
  </metadata>
  <g
     inkscape:label="Layer 1"
     inkscape:groupmode="layer"
     id="layer1"
     transform="translate(0,-288.692)">
    <path
       inkscape:connector-curvature="0"
       d="m 4.7958724,288.69418 c -1.79917,0 -3.28084,1.4552 -3.28084,3.28083 0,1.79917 1.45521,3.28083 3.28084,3.28083 1.79916,0 3.28083,-1.45521 3.28083,-3.28083 0,-1.82563 -1.48167,-3.28083 -3.28083,-3.28083 m 2.54,1.4552 c -0.15875,0.10584 -0.34396,0.21167 -0.52917,0.3175 -0.10583,-0.21166 -0.23813,-0.42333 -0.39688,-0.60854 0.1323,-0.0794 0.26459,-0.18521 0.37042,-0.26458 0.23813,0.13229 0.42333,0.34396 0.55563,0.55562 m -1.37584,-1.08479 c 0.26459,0.10584 0.50271,0.23813 0.74084,0.42334 -0.10584,0.10583 -0.23813,0.1852 -0.37042,0.26458 -0.15875,-0.18521 -0.34396,-0.34396 -0.52917,-0.50271 0.0529,-0.0794 0.10584,-0.13229 0.15875,-0.18521 m 0.26459,0.74084 c -0.18521,0.10583 -0.37042,0.15875 -0.55563,0.23812 -0.0794,-0.18521 -0.15875,-0.37042 -0.26458,-0.52917 0.10583,-0.0529 0.21166,-0.10583 0.29104,-0.1852 0.18521,0.13229 0.37042,0.29104 0.52917,0.47625 m -0.39688,-0.79375 c -0.0529,0.0529 -0.10583,0.10583 -0.13229,0.15875 -0.18521,-0.10584 -0.34396,-0.21167 -0.55563,-0.29105 0.23813,0 0.47625,0.0529 0.68792,0.1323 m -0.23812,0.23812 c -0.0794,0.0529 -0.15875,0.10583 -0.23813,0.13229 -0.10583,-0.15875 -0.21167,-0.29104 -0.3175,-0.44979 0.18521,0.0794 0.37042,0.18521 0.55563,0.3175 m -0.74084,-0.29104 c 0.13229,0.13229 0.23813,0.29104 0.34396,0.47625 -0.10583,0.0265 -0.21167,0.0529 -0.34396,0.0529 z m 0,0.66146 c 0.13229,0 0.29104,-0.0265 0.42334,-0.0794 0.10583,0.15875 0.1852,0.34396 0.26458,0.52917 -0.21167,0.0529 -0.44979,0.0794 -0.68792,0.10583 z m -0.13229,-0.66146 v 0.52917 c -0.10583,0 -0.21167,-0.0265 -0.34396,-0.0529 0.13229,-0.15875 0.23813,-0.3175 0.34396,-0.47625 m -0.44979,0.42333 c -0.0794,-0.0265 -0.18521,-0.0794 -0.23813,-0.13229 0.18521,-0.10583 0.37042,-0.21167 0.55563,-0.29104 -0.13229,0.13229 -0.23813,0.26458 -0.3175,0.42333 m 0.18521,-0.52916 c -0.18521,0.0794 -0.37042,0.1852 -0.55563,0.29104 -0.0529,-0.0529 -0.10583,-0.10584 -0.13229,-0.15875 0.21167,-0.0529 0.44979,-0.10584 0.68792,-0.13229 m 2.24896,5.60916 c -0.42334,-0.23812 -0.4498,-0.58208 -0.42334,-0.68791 0.0265,-0.1323 0.10584,-0.0794 0.15875,-0.0794 0.29104,0 0.58209,-0.0794 0.9525,-0.47625 0.42334,-0.42333 0.55563,-1.37583 -0.10583,-1.98437 -0.68792,-0.66146 -1.42875,-0.55563 -1.905,0.0529 -0.10583,0.13229 -0.34396,0.21167 -0.52917,0.21167 -0.3175,0 -0.10583,0.23812 -0.10583,0.29104 0,0.0529 -0.0529,0.0794 -0.0794,0.0794 -0.10583,-0.0265 -0.0529,0.13229 -0.0529,0.15875 0,0.0264 -0.0529,0.0794 -0.0529,0.0794 -0.13229,0 -0.10583,0.10583 -0.0794,0.15875 0,0.0265 0,0.0794 -0.0529,0.10583 -0.0529,0.0265 -0.0794,0.1323 -0.0794,0.21167 0,0.13229 0.1323,0.23813 0.34396,0.39688 0.21167,0.15875 0.23813,0.3175 0.23813,0.42333 0,0.10583 0.0265,0.29104 0.0529,0.39687 0.0529,0.1323 0.0529,0.39688 -0.23813,0.39688 -0.37042,0.0265 -1.00542,0.29104 -1.05833,0.3175 -0.21167,0.0794 -0.47625,0.10583 -0.68792,0.0529 -0.10583,-0.0794 -0.21167,-0.15875 -0.3175,-0.26459 -0.0529,-0.13229 0.0265,-0.29104 0.10583,-0.39687 0.13229,0.13229 0.29104,0.10583 0.39688,0.10583 0.10583,0 0.58208,-0.0794 0.66146,-0.10583 0.0794,-0.0265 0.10583,-0.0265 0.13229,0 0.18521,0.0794 0.44979,0.0794 0.55562,-0.26459 0.10584,-0.37041 -0.13229,-0.26458 -0.18521,-0.23812 -0.0265,0.0265 -0.0794,0 -0.0529,-0.0265 0.0529,-0.0794 -0.0265,-0.0794 -0.0529,-0.0794 -0.10583,0 -0.23812,0.10583 -0.26458,0.13229 -0.0529,0.0265 -0.0794,0.0265 -0.10584,0.0265 -0.13229,-0.0794 -0.52916,0.0264 -0.66145,-0.18521 0,-0.0529 -0.10584,-0.92604 -0.15875,-1.08479 0,-0.0265 -0.0265,-0.0794 0.0264,-0.1323 0.10584,-0.15875 0.37042,0 0.52917,0 0.18521,0 0.21167,-0.0794 0.26458,-0.13229 0.0529,-0.0529 0.0794,-0.0265 0.10584,-0.0529 0.0265,-0.0265 0,-0.0529 0,-0.0794 0,-0.0265 0.0265,0 0.0529,-0.0265 0.0264,-0.0265 0,-0.0794 0,-0.10583 0.0529,-0.0794 0.15874,-0.0265 0.10583,-0.18521 -0.0265,-0.10583 0.0265,-0.21167 0.0794,-0.26458 0.0794,-0.10584 0.42334,-0.58209 -0.15875,-1.08479 -0.55562,-0.47625 -1.13771,-0.42334 -1.50812,-0.0265 -0.37042,0.39687 -0.18521,0.97896 -0.15875,1.13771 0.0265,0.15875 -0.0794,0.29104 -0.21167,0.34395 -0.10583,0.0529 -0.34396,0.21167 -0.50271,0.34396 0.0265,-1.27 0.79375,-2.38125 1.95792,-2.83104 0.0529,0.0529 0.10583,0.13229 0.15875,0.18521 -0.13229,0.10583 -0.42333,0.34396 -0.42333,0.34396 0,0 0.0264,0 0.0794,0.0265 0.0265,0 0.0794,0.0264 0.0794,0.0264 0,0 0.23812,-0.21166 0.37041,-0.29104 0.0794,0.0794 0.18521,0.13229 0.29104,0.18521 -0.0529,0.10583 -0.21166,0.37042 -0.21166,0.37042 0,0 0.0265,0.0265 0.0529,0.0265 0.0264,0.0265 0.0529,0.0265 0.0529,0.0265 0,0 0.15875,-0.29104 0.21167,-0.39687 0.13229,0.0529 0.26458,0.0794 0.39687,0.0794 v 0.52917 c -0.0794,0 -0.26458,0 -0.34395,-0.0265 h -0.0529 l 0.0265,0.0529 c 0.0265,0.0265 0.0265,0.0529 0.0529,0.0794 v 0 0 c 0.0529,0 0.23813,0 0.3175,0 v 0.97896 h 0.13229 v -0.23812 c 0.21167,0 0.37042,-0.0265 0.55563,-0.0529 v 0 l 0.18521,-0.15875 h -0.10584 c -0.21166,0.0265 -0.39687,0.0529 -0.55562,0.0529 0,0 -0.0529,0 -0.0794,0 v -0.60854 c 0.23813,0 0.50271,-0.0265 0.74084,-0.10584 0.0529,0.15875 0.18521,0.55563 0.18521,0.55563 l 0.13229,-0.0529 c 0,0 -0.13229,-0.39687 -0.18521,-0.55562 0.21167,-0.0529 0.39687,-0.15875 0.58208,-0.23813 0.15875,0.18521 0.29104,0.39688 0.39688,0.60854 -0.10584,0.0529 -0.26459,0.10584 -0.26459,0.10584 0.1323,0.0264 0.23813,0.0529 0.23813,0.0529 0,0 0.0529,-0.0265 0.0794,-0.0265 0,0.0265 0.0265,0.0794 0.0265,0.0794 l 0.18521,0.0794 -0.0265,-0.0529 c 0,0 -0.0529,-0.13229 -0.0794,-0.15875 0.18521,-0.0794 0.37041,-0.18521 0.55562,-0.3175 0.34396,0.50271 0.50271,1.11125 0.50271,1.71979 0.0529,1.00542 -0.44979,1.905 -1.19062,2.48708"
       id="path75"
       style="fill:#e6e6e6;stroke-width:0.26458332" />
    <path
       inkscape:connector-curvature="0"
       d="m 1.2239924,289.5673 -0.0529,0.0529 c -0.18520012,0.15875 -0.63500012,0.60854 -0.55562012,1.11125 0,0 0,0.0265 0,0.0265 0,0 0.0265,0.10583 0.0265,0.10583 l 0.0529,-0.0529 c 0.26459,-0.23812 0.47625012,-0.66146 0.55563012,-1.13771 l 0.0265,-0.13229 z"
       id="path77"
       style="fill:#e6e6e6;stroke-width:0.26458332" />
    <path
       inkscape:connector-curvature="0"
       d="m 0.32441228,290.41397 -0.0265,0.0529 c -0.0265,0.0794 -0.0794,0.26459 -0.10583,0.47625 -0.0529,0.3175 -0.0265,0.79375 0.23812,1.13771 0,0 0.0265,0.0529 0.0265,0.0529 l 0.0265,0.0529 0.0529,-0.21167 c 0.0529,-0.37042 -0.0265,-1.13771 -0.15875,-1.48167 l -0.0529,-0.10583 z"
       id="path79"
       style="fill:#e6e6e6;stroke-width:0.26458332" />
    <path
       inkscape:connector-curvature="0"
       d="m 0.00691228,291.73688 v 0.0529 c -0.0265,0.3175 0,1.13771 0.66146,1.5875 0,0 0.0794,0.0529 0.0794,0.0529 v -0.10584 c 0,-0.3175 -0.37042,-1.24354 -0.635,-1.56104 l -0.0794,-0.10583 z"
       id="path81"
       style="fill:#e6e6e6;stroke-width:0.26458332" />
    <path
       inkscape:connector-curvature="0"
       d="m 0.11274228,293.19209 v 0.0529 c 0.10583,0.47625 0.52917,1.21708 1.21708012,1.45521 l 0.10584,0.0265 -0.0265,-0.10584 c -0.13229,-0.34396 -0.79375012,-1.16416 -1.21708012,-1.42875 l -0.0794,-0.0529 z"
       id="path83"
       style="fill:#e6e6e6;stroke-width:0.26458332" />
    <path
       inkscape:connector-curvature="0"
       d="m 1.5150324,290.28168 -0.0794,0.0264 c -0.50271012,0.3175 -0.74084012,0.68792 -0.74084012,1.16417 v 0.10583 l 0.0794,-0.0529 c 0.26458002,-0.23813 0.63500012,-0.82021 0.71437012,-1.13771 l 0.0265,-0.13229 z"
       id="path85"
       style="fill:#e6e6e6;stroke-width:0.26458332" />
    <path
       inkscape:connector-curvature="0"
       d="m 1.1975324,291.28709 -0.0265,0.0529 c -0.1323001,0.13229 -0.55563012,0.58208 -0.52917012,1.13771 0,0.0794 0.0265,0.18521 0.0529,0.26458 l 0.0265,0.0794 0.0529,-0.0794 c 0.21167,-0.29104 0.47625012,-1.03187 0.44979012,-1.37583 v -0.10584 z"
       id="path87"
       style="fill:#e6e6e6;stroke-width:0.26458332" />
    <path
       inkscape:connector-curvature="0"
       d="m 1.2239924,292.26605 -0.0265,0.0529 c -0.21166012,0.3175 -0.31750012,0.635 -0.31750012,0.9525 0,0.21166 0.0794,0.42333 0.21167002,0.635 l 0.0529,0.0794 0.0265,-0.0794 c 0.0794,-0.18521 0.15875,-0.74084 0.15875,-1.19063 0,-0.15875 -0.0265,-0.29104 -0.0529,-0.37041 l -0.0265,-0.10584 z"
       id="path89"
       style="fill:#e6e6e6;stroke-width:0.26458332" />
    <path
       inkscape:connector-curvature="0"
       d="m 1.4621224,293.29793 -0.0265,0.0529 c -0.0529,0.21167 -0.10583,0.39688 -0.0794,0.60854 0,0.42334 0.21167,0.7673 0.58209,1.00542 l 0.0529,0.0265 0.0265,-0.0794 c 0,0 0,-0.0794 0,-0.0794 0,-0.34396 -0.26458,-1.24354 -0.47625,-1.50813 l -0.0529,-0.0794 z"
       id="path91"
       style="fill:#e6e6e6;stroke-width:0.26458332" />
    <path
       inkscape:connector-curvature="0"
       d="m 0.74774228,294.67376 0.0265,0.0529 c 0.26458002,0.44979 0.74083012,1.05833 1.61396012,0.89958 h 0.0794 l -0.0529,-0.0529 c -0.15875,-0.23812 -1.21709,-0.84666 -1.58750012,-0.89958 l -0.10584,-0.0265 z"
       id="path93"
       style="fill:#e6e6e6;stroke-width:0.26458332" />
    <path
       inkscape:connector-curvature="0"
       d="m 2.0442024,295.83793 v 0 l -0.13229,0.0265 0.13229,0.0529 c 0.55562,0.23813 1.24354,0.29104 1.66687,0.15875 0.15875,-0.0529 0.23813,-0.13229 0.34396,-0.23812 0.71438,0.0794 1.37584,0.66145 1.77271,1.1377 0,0 0.0265,0.0265 0.0265,0.0265 h 0.0265 c 0.0529,-0.0265 0.10583,-0.0794 0.13229,-0.10583 l 0.0265,-0.0265 -0.0265,-0.0265 c -0.39688,-0.52916 -1.03188,-0.84666 -1.05833,-0.87312 -0.58209,-0.26459 -1.5875,-0.47625 -2.91042,-0.13229"
       id="path95"
       style="fill:#e6e6e6;stroke-width:0.26458332" />
    <path
       inkscape:connector-curvature="0"
       d="m 2.0706624,294.35626 v 0.0529 c 0.0794,0.52916 0.29104,1.21708 1.19062,1.1377 h 0.0529 l -0.0265,-0.0529 c -0.0529,-0.23813 -0.87312,-0.92604 -1.16417,-1.11125 l -0.0794,-0.0529 z"
       id="path97"
       style="fill:#e6e6e6;stroke-width:0.26458332" />
    <path
       inkscape:connector-curvature="0"
       d="m 8.3148224,289.51438 0.0265,0.1323 c 0.0794,0.47625 0.29104,0.89958 0.55563,1.1377 l 0.0529,0.0529 c 0,0 0.0265,-0.10583 0.0265,-0.10583 0,0 0,-0.0265 0,-0.0265 0.0794,-0.50271 -0.37041,-0.9525 -0.55562,-1.11125 l -0.0529,-0.0529 z"
       id="path99"
       style="fill:#e6e6e6;stroke-width:0.26458332" />
    <path
       inkscape:connector-curvature="0"
       d="m 9.2408724,290.36105 -0.0529,0.10583 c -0.13229,0.34396 -0.18521,1.11125 -0.15875,1.48167 l 0.0529,0.21167 0.0264,-0.0265 c 0,0 0.0265,-0.0529 0.0265,-0.0529 0.29104,-0.34396 0.29104,-0.79375 0.23813,-1.13771 -0.0265,-0.23812 -0.0794,-0.39687 -0.10584,-0.47625 l -0.0264,-0.0529 z"
       id="path101"
       style="fill:#e6e6e6;stroke-width:0.26458332" />
    <path
       inkscape:connector-curvature="0"
       d="m 9.5848224,291.68397 -0.0794,0.10583 c -0.26458,0.34396 -0.635,1.24354 -0.635,1.56104 v 0.10584 c 0,0 0.0794,-0.0529 0.0794,-0.0529 0.66146,-0.42333 0.68792,-1.24354 0.66146,-1.5875 v -0.0529 z"
       id="path103"
       style="fill:#e6e6e6;stroke-width:0.26458332" />
    <path
       inkscape:connector-curvature="0"
       d="m 9.4789924,293.13918 -0.10583,0.0529 c -0.42334,0.26459 -1.08479,1.08479 -1.21709,1.42875 l -0.0265,0.10584 0.10583,-0.0265 c 0.68792,-0.21167 1.13771,-0.97896 1.21708,-1.45521 v -0.0529 z"
       id="path105"
       style="fill:#e6e6e6;stroke-width:0.26458332" />
    <path
       inkscape:connector-curvature="0"
       d="m 8.0767024,290.22876 0.0265,0.13229 c 0.10583,0.34396 0.42333,0.92604 0.71437,1.16417 l 0.0794,0.0529 v -0.10583 c 0.0265,-0.47625 -0.21167,-0.84667 -0.71438,-1.16417 l -0.0529,-0.0264 z"
       id="path107"
       style="fill:#e6e6e6;stroke-width:0.26458332" />
    <path
       inkscape:connector-curvature="0"
       d="m 8.3677424,291.26063 v 0.10584 c -0.0265,0.34396 0.26458,1.11125 0.44979,1.37583 l 0.0529,0.0794 0.0265,-0.0794 c 0.0265,-0.10583 0.0529,-0.18521 0.0529,-0.26458 0.0265,-0.55563 -0.39687,-1.00542 -0.52916,-1.13771 l -0.0265,-0.0265 z"
       id="path109"
       style="fill:#e6e6e6;stroke-width:0.26458332" />
    <path
       inkscape:connector-curvature="0"
       d="m 8.3412824,292.21313 -0.0264,0.10584 c -0.0265,0.0794 -0.0529,0.21166 -0.0529,0.37041 0,0.4498 0.0529,1.00542 0.15875,1.19063 l 0.0265,0.0794 0.0529,-0.0794 c 0.13229,-0.18521 0.21167,-0.39688 0.21167,-0.635 0,-0.29104 -0.10583,-0.635 -0.3175,-0.9525 l -0.0265,-0.0529 z"
       id="path111"
       style="fill:#e6e6e6;stroke-width:0.26458332" />
    <path
       inkscape:connector-curvature="0"
       d="m 8.1031624,293.24501 -0.0529,0.0794 c -0.21167,0.26459 -0.47625,1.16417 -0.47625,1.50813 0,0 0,0.0529 0,0.0794 l 0.0265,0.0794 c 0,0 0.0529,-0.0265 0.0529,-0.0265 0.37041,-0.23812 0.55562,-0.58208 0.58208,-1.00542 0,-0.1852 -0.0265,-0.39687 -0.0794,-0.60854 l -0.0265,-0.0529 z"
       id="path113"
       style="fill:#e6e6e6;stroke-width:0.26458332" />
    <path
       inkscape:connector-curvature="0"
       d="m 8.8704524,294.62084 c 0,0 -0.10583,0.0265 -0.10583,0.0265 -0.37042,0.0529 -1.42875,0.66146 -1.5875,0.89958 l -0.0529,0.0529 h 0.0794 c 0.87313,0.15875 1.34938,-0.44979 1.61396,-0.89958 l 0.0265,-0.0529 z"
       id="path115"
       style="fill:#e6e6e6;stroke-width:0.26458332" />
    <path
       inkscape:connector-curvature="0"
       d="m 4.6635724,295.97022 c -0.0265,0 -0.66145,0.34396 -1.05833,0.87312 l -0.0265,0.0265 0.0265,0.0265 c 0.0265,0.0265 0.10583,0.0794 0.13229,0.10583 h 0.0265 c 0,0 0.0265,-0.0265 0.0265,-0.0265 0.39687,-0.47625 1.05833,-1.08479 1.77271,-1.1377 0.10583,0.10583 0.21166,0.1852 0.34396,0.23812 0.39687,0.13229 1.11125,0.0794 1.66687,-0.15875 l 0.13229,-0.0529 -0.13229,-0.0265 c -1.34937,-0.34396 -2.35479,-0.1323 -2.91042,0.13229"
       id="path117"
       style="fill:#e6e6e6;stroke-width:0.26458332" />
    <path
       inkscape:connector-curvature="0"
       d="m 7.5210724,294.30334 -0.0794,0.0529 c -0.29104,0.18521 -1.08479,0.87312 -1.16417,1.11125 l -0.0265,0.0529 h 0.0529 c 0.87313,0.0794 1.08479,-0.60855 1.19063,-1.13771 v -0.0529 z"
       id="path119"
       style="fill:#e6e6e6;stroke-width:0.26458332" />
  </g>
</svg>
