<?xml version="1.0" encoding="UTF-8" standalone="no"?>
<!-- Generator: Adobe Illustrator 22.0.1, SVG Export Plug-In . SVG Version: 6.00 Build 0)  -->

<svg
   xmlns:dc="http://purl.org/dc/elements/1.1/"
   xmlns:cc="http://creativecommons.org/ns#"
   xmlns:rdf="http://www.w3.org/1999/02/22-rdf-syntax-ns#"
   xmlns:svg="http://www.w3.org/2000/svg"
   xmlns="http://www.w3.org/2000/svg"
   xmlns:sodipodi="http://sodipodi.sourceforge.net/DTD/sodipodi-0.dtd"
   xmlns:inkscape="http://www.inkscape.org/namespaces/inkscape"
   version="1.1"
   id="Layer_1"
   x="0px"
   y="0px"
   viewBox="0 0 91.300007 28.299999"
   enable-background="new 0 0 130.9 31.5"
   xml:space="preserve"
   sodipodi:docname="UnicefLogWriting.svg"
   inkscape:version="0.92.4 (5da689c313, 2019-01-14)"
   width="91.300003"
   height="28.299999"><metadata
   id="metadata138"><rdf:RDF><cc:Work
       rdf:about=""><dc:format>image/svg+xml</dc:format><dc:type
         rdf:resource="http://purl.org/dc/dcmitype/StillImage" /><dc:title></dc:title></cc:Work></rdf:RDF></metadata><defs
   id="defs136" /><sodipodi:namedview
   pagecolor="#ffffff"
   bordercolor="#666666"
   borderopacity="1"
   objecttolerance="10"
   gridtolerance="10"
   guidetolerance="10"
   inkscape:pageopacity="0"
   inkscape:pageshadow="2"
   inkscape:window-width="1858"
   inkscape:window-height="1057"
   id="namedview134"
   showgrid="false"
   inkscape:zoom="13.009932"
   inkscape:cx="60.136827"
   inkscape:cy="27.235416"
   inkscape:window-x="-8"
   inkscape:window-y="-8"
   inkscape:window-maximized="1"
   inkscape:current-layer="Layer_1" />























<path
   d="m 38.580784,0.90162936 h 4.2 V 4.7016293 h -4.2 z m 0.4,8.19999994 h 3.5 V 27.701629 h -3.5 z"
   id="path121"
   style="fill:#e6e6e6"
   inkscape:connector-curvature="0" />
<path
   d="m 12.480784,9.1016293 h 3.5 V 27.701629 h -3.4 v -2.7 h -0.1 c -1.4,2.3 -3.8000001,3.3 -6.4000001,3.3 -3.9,0 -6.09999999,-3 -6.09999999,-6.7 V 9.1016293 H 3.4807839 V 20.101629 c 0,3.2 0.7,5.6 4.1,5.6 1.4,0 3.4000001,-0.7 4.1000001,-2.7 0.7,-1.7 0.7,-3.9 0.7,-4.4 V 9.1016293 Z"
   id="path123"
   style="fill:#e6e6e6"
   inkscape:connector-curvature="0" />
<path
   d="m 22.980784,11.801629 v 0 c 1.3,-2.2999997 3.8,-3.2999997 5.7,-3.2999997 1.3,0 7,0.3 7,6.2999997 v 12.8 h -3.5 v -11.7 c 0,-3.1 -1.3,-4.7 -4.3,-4.7 0,0 -1.9,-0.1 -3.4,1.4 -0.5,0.5 -1.5,1.3 -1.5,5 v 10.1 h -3.5 V 9.1016293 h 3.5 z"
   id="path125"
   style="fill:#e6e6e6"
   inkscape:connector-curvature="0" />
<path
   d="m 57.180784,15.001629 c -0.2,-2.3 -1.3,-3.9 -3.8,-3.9 -3.3,0 -4.6,2.9 -4.6,7.2 0,4.3 1.3,7.2 4.6,7.2 2.3,0 3.7,-1.5 3.9,-4.2 h 3.5 c -0.3,4.2 -3.4,6.7 -7.5,6.7 -5.9,0 -8.3,-4.2 -8.3,-9.6 0,-5.4 2.7,-9.8999997 8.6,-9.8999997 3.9,0 6.8,2.4999997 7,6.4999997 z"
   id="path127"
   style="fill:#e6e6e6"
   inkscape:connector-curvature="0" />
<path
   d="m 65.980784,19.001629 c -0.3,3.2 1.1,6.6 4.6,6.6 2.7,0 4.1,-1.1 4.5,-3.8 h 3.7 c -0.6,4.2 -3.8,6.3 -8.2,6.3 -5.9,0 -8.3,-4.2 -8.3,-9.6 0,-5.4 2.7,-9.8999997 8.6,-9.8999997 5.5,0.1 8.1,3.5999997 8.1,8.6999997 v 1.7 z m 9.4,-2.4 c 0.1,-3.1 -1.3,-5.5 -4.7,-5.5 -2.9,0 -4.6,2.5 -4.6,5.5 z"
   id="path129"
   style="fill:#e6e6e6"
   inkscape:connector-curvature="0" />
<path
   d="m 82.980784,27.501629 v -16 h -3.2 V 9.1016293 h 3.2 v -4 c 0.1,-4 3.2,-5.09999994 5.8,-5.09999994 0.8,0 1.7,0.2 2.5,0.4 V 3.3016293 c -0.6,0 -1.2,-0.1 -1.8,-0.1 -2,0 -3.1,0.5 -3,2.5 v 3.4 h 4.3 v 2.3999997 h -4.3 v 16 z"
   id="path131"
   style="fill:#e6e6e6"
   inkscape:connector-curvature="0" />
</svg>